<svg version="1.1" xmlns="http://www.w3.org/2000/svg" viewBox="0 0 1157.5468901018648 976.54296875" width="1157.5468901018648" height="976.54296875">
  <!-- svg-source:excalidraw -->
  
  <defs>
    <style class="style-fonts">
      @font-face {
        font-family: "Virgil";
        src: url("https://excalidraw.com/Virgil.woff2");
      }
      @font-face {
        font-family: "Cascadia";
        src: url("https://excalidraw.com/Cascadia.woff2");
      }
      @font-face {
        font-family: "Assistant";
        src: url("https://excalidraw.com/Assistant-Regular.woff2");
      }
    </style>
    
  </defs>
  <rect x="0" y="0" width="1157.5468901018648" height="976.54296875" fill="#ffffff"></rect><g stroke-linecap="round" transform="translate(11.26953125 10) rotate(0 75 32.5)"><path d="M0 0 C52.43 -0.32, 102.26 0.96, 150 0 M0 0 C51.25 -1.28, 100.32 -0.89, 150 0 M150 0 C149.38 26.3, 148.64 50.96, 150 65 M150 0 C150.25 20.64, 150.41 42.61, 150 65 M150 65 C110.66 63.73, 67.39 64.71, 0 65 M150 65 C117.69 63.71, 84.94 63.8, 0 65 M0 65 C0.06 51.49, -1.09 34.64, 0 0 M0 65 C-0.99 49.74, -0.56 35.11, 0 0" stroke="#1e1e1e" stroke-width="2" fill="none"></path></g><g transform="translate(68.39754486083984 32.5) rotate(0 17.871986389160156 10)"><text x="17.871986389160156" y="14.016" font-family="Virgil, Segoe UI Emoji" font-size="16px" fill="#000" text-anchor="middle" style="white-space: pre;" direction="ltr" dominant-baseline="alphabetic">User</text></g><g stroke-linecap="round" transform="translate(10 901.296875) rotate(0 75 32.5)"><path d="M0 0 C38.13 1.02, 76.6 -0.63, 150 0 M0 0 C47.63 0.87, 97.21 2.15, 150 0 M150 0 C147.83 23.91, 150.26 49.09, 150 65 M150 0 C150.44 23.51, 149.85 47.19, 150 65 M150 65 C101.33 63.17, 51.57 62.35, 0 65 M150 65 C115.5 64.55, 80.85 64.6, 0 65 M0 65 C-1.14 42.99, -1.45 22.08, 0 0 M0 65 C0.19 45.76, 0.7 26.97, 0 0" stroke="#1e1e1e" stroke-width="2" fill="none"></path></g><g transform="translate(67.12801361083984 923.796875) rotate(0 17.871986389160156 10)"><text x="17.871986389160156" y="14.016" font-family="Virgil, Segoe UI Emoji" font-size="16px" fill="#000" text-anchor="middle" style="white-space: pre;" direction="ltr" dominant-baseline="alphabetic">User</text></g><g stroke-linecap="round" transform="translate(238.26953125 10) rotate(0 75 32.5)"><path d="M0 0 C38.01 -1.58, 74.99 1.49, 150 0 M0 0 C31.41 1.57, 61.66 0.33, 150 0 M150 0 C150.02 21.6, 150.75 43.03, 150 65 M150 0 C149.96 13.45, 150.44 28.92, 150 65 M150 65 C115.35 63.08, 82.63 64.71, 0 65 M150 65 C107.54 64.73, 66.79 64.81, 0 65 M0 65 C-1.07 41.15, 0.2 14.04, 0 0 M0 65 C0.42 48.34, 0.75 32.83, 0 0" stroke="#1e1e1e" stroke-width="2" fill="none"></path></g><g transform="translate(279.8855514526367 32.5) rotate(0 33.38397979736328 10)"><text x="33.38397979736328" y="14.016" font-family="Virgil, Segoe UI Emoji" font-size="16px" fill="#000" text-anchor="middle" style="white-space: pre;" direction="ltr" dominant-baseline="alphabetic">Frontend</text></g><g stroke-linecap="round" transform="translate(236.75390625 901.54296875) rotate(0 75 32.5)"><path d="M0 0 C47.29 2.73, 91.81 0.05, 150 0 M0 0 C37.03 -1.59, 72.84 -1.96, 150 0 M150 0 C151.54 18.19, 148.51 36.35, 150 65 M150 0 C150.06 18.04, 149.03 34.11, 150 65 M150 65 C108.27 64.1, 68.98 63.4, 0 65 M150 65 C107.27 64.88, 64.61 64.31, 0 65 M0 65 C0.3 44.38, -0.44 25.98, 0 0 M0 65 C0.41 48.24, 0.46 29.28, 0 0" stroke="#1e1e1e" stroke-width="2" fill="none"></path></g><g transform="translate(278.3699264526367 924.04296875) rotate(0 33.38397979736328 10)"><text x="33.38397979736328" y="14.016" font-family="Virgil, Segoe UI Emoji" font-size="16px" fill="#000" text-anchor="middle" style="white-space: pre;" direction="ltr" dominant-baseline="alphabetic">Frontend</text></g><g stroke-linecap="round" transform="translate(477.26953125 10) rotate(0 75 32.5)"><path d="M0 0 C32.59 -2.25, 67.89 0.66, 150 0 M0 0 C55.76 -0.1, 110.7 1.11, 150 0 M150 0 C148.75 20.99, 149.71 40.16, 150 65 M150 0 C149.34 15.76, 149.83 30.97, 150 65 M150 65 C115.41 64.62, 81.43 63.79, 0 65 M150 65 C107.01 64.43, 62.36 64.28, 0 65 M0 65 C-0.86 41.92, -0.51 20.38, 0 0 M0 65 C0.25 45.88, 0.09 27.83, 0 0" stroke="#1e1e1e" stroke-width="2" fill="none"></path></g><g transform="translate(520.5415496826172 32.5) rotate(0 31.727981567382812 10)"><text x="31.727981567382812" y="14.016" font-family="Virgil, Segoe UI Emoji" font-size="16px" fill="#000" text-anchor="middle" style="white-space: pre;" direction="ltr" dominant-baseline="alphabetic">Backend</text></g><g stroke-linecap="round" transform="translate(475.75390625 901.54296875) rotate(0 75 32.5)"><path d="M0 0 C56.44 2.66, 116.6 2.26, 150 0 M0 0 C36.66 1.67, 73.96 2.03, 150 0 M150 0 C148.72 20.09, 148.34 41.66, 150 65 M150 0 C149.16 24.57, 148.76 50.1, 150 65 M150 65 C103.4 63.27, 57.15 65.36, 0 65 M150 65 C104.93 63.42, 60.41 64.06, 0 65 M0 65 C-0.27 50.47, 0.06 36.07, 0 0 M0 65 C0.06 39.92, -1.13 13.53, 0 0" stroke="#1e1e1e" stroke-width="2" fill="none"></path></g><g transform="translate(519.0259246826172 924.04296875) rotate(0 31.727981567382812 10)"><text x="31.727981567382812" y="14.016" font-family="Virgil, Segoe UI Emoji" font-size="16px" fill="#000" text-anchor="middle" style="white-space: pre;" direction="ltr" dominant-baseline="alphabetic">Backend</text></g><g stroke-linecap="round" transform="translate(718.26953125 10) rotate(0 84 32.5)"><path d="M0 0 C43.44 -0.1, 83.01 -1.04, 168 0 M0 0 C35.28 0.16, 70.47 -1.36, 168 0 M168 0 C166.66 22.07, 169.58 41.64, 168 65 M168 0 C167.07 17.84, 167.89 36.89, 168 65 M168 65 C121.75 64.62, 75.82 65.5, 0 65 M168 65 C127.65 63.7, 85.68 63.33, 0 65 M0 65 C-0.06 48.34, 1.99 30.61, 0 0 M0 65 C-1.02 47.35, -0.93 31.59, 0 0" stroke="#1e1e1e" stroke-width="2" fill="none"></path></g><g transform="translate(725.1575622558594 22.5) rotate(0 77.11196899414062 20)"><text x="77.11196899414062" y="14.016" font-family="Virgil, Segoe UI Emoji" font-size="16px" fill="#000" text-anchor="middle" style="white-space: pre;" direction="ltr" dominant-baseline="alphabetic">ExecutionEnvironmen</text><text x="77.11196899414062" y="34.016" font-family="Virgil, Segoe UI Emoji" font-size="16px" fill="#000" text-anchor="middle" style="white-space: pre;" direction="ltr" dominant-baseline="alphabetic">t</text></g><g stroke-linecap="round" transform="translate(716.75390625 901.54296875) rotate(0 84 32.5)"><path d="M0 0 C65.44 -0.7, 131.22 -1.78, 168 0 M0 0 C55.7 -1.97, 111.39 -1.49, 168 0 M168 0 C169.46 16.23, 167.35 35.05, 168 65 M168 0 C167.62 13.83, 167.27 27.96, 168 65 M168 65 C128.87 67.26, 88.6 65.55, 0 65 M168 65 C129.05 64.4, 91.22 64.58, 0 65 M0 65 C1.88 45.09, -0.72 23.59, 0 0 M0 65 C-0.16 44.09, -0.44 22.03, 0 0" stroke="#1e1e1e" stroke-width="2" fill="none"></path></g><g transform="translate(723.6419372558594 914.04296875) rotate(0 77.11196899414062 20)"><text x="77.11196899414062" y="14.016" font-family="Virgil, Segoe UI Emoji" font-size="16px" fill="#000" text-anchor="middle" style="white-space: pre;" direction="ltr" dominant-baseline="alphabetic">ExecutionEnvironmen</text><text x="77.11196899414062" y="34.016" font-family="Virgil, Segoe UI Emoji" font-size="16px" fill="#000" text-anchor="middle" style="white-space: pre;" direction="ltr" dominant-baseline="alphabetic">t</text></g><g stroke-linecap="round" transform="translate(463.25390625 744.54296875) rotate(0 87.5 25)"><path d="M0 0 C63.92 -1, 132.08 -0.24, 175 0 M175 0 C175.74 17.63, 174.57 35.62, 175 50 M175 50 C118.27 47.97, 60.45 47.15, 0 50 M0 50 C-0.56 38.33, -1.39 27.01, 0 0" stroke="#1e1e1e" stroke-width="2.5" fill="none" stroke-dasharray="8 10"></path></g><g transform="translate(491.82593536376953 749.54296875) rotate(0 58.92797088623047 20)"><text x="58.92797088623047" y="14.016" font-family="Virgil, Segoe UI Emoji" font-size="16px" fill="#000" text-anchor="middle" style="white-space: pre;" direction="ltr" dominant-baseline="alphabetic">Ensure secure </text><text x="58.92797088623047" y="34.016" font-family="Virgil, Segoe UI Emoji" font-size="16px" fill="#000" text-anchor="middle" style="white-space: pre;" direction="ltr" dominant-baseline="alphabetic">execution</text></g><g stroke-linecap="round" transform="translate(455 793.54296875) rotate(0 96 25)"><path d="M0 0 C63.65 0.75, 127.43 0.83, 192 0 M192 0 C191.65 9.67, 192.61 23.37, 192 50 M192 50 C148.12 47.95, 106.17 49.58, 0 50 M0 50 C-1.21 35.91, 0.88 22.14, 0 0" stroke="#1e1e1e" stroke-width="2.5" fill="none" stroke-dasharray="8 10"></path></g><g transform="translate(490.08003997802734 798.54296875) rotate(0 60.919960021972656 20)"><text x="60.919960021972656" y="14.016" font-family="Virgil, Segoe UI Emoji" font-size="16px" fill="#000" text-anchor="middle" style="white-space: pre;" direction="ltr" dominant-baseline="alphabetic">Handle multiple </text><text x="60.919960021972656" y="34.016" font-family="Virgil, Segoe UI Emoji" font-size="16px" fill="#000" text-anchor="middle" style="white-space: pre;" direction="ltr" dominant-baseline="alphabetic">languages</text></g><g stroke-linecap="round" transform="translate(438.25390625 842.54296875) rotate(0 112.5 25)"><path d="M0 0 C62.93 0.04, 122.1 0.31, 225 0 M225 0 C225.32 14.99, 223.27 26.06, 225 50 M225 50 C163.33 48.76, 103.75 48.16, 0 50 M0 50 C1.08 35.64, 1.96 20.12, 0 0" stroke="#1e1e1e" stroke-width="2.5" fill="none" stroke-dasharray="8 10"></path></g><g transform="translate(469.01795196533203 847.54296875) rotate(0 81.73595428466797 20)"><text x="81.73595428466797" y="14.016" font-family="Virgil, Segoe UI Emoji" font-size="16px" fill="#000" text-anchor="middle" style="white-space: pre;" direction="ltr" dominant-baseline="alphabetic">High availability and </text><text x="81.73595428466797" y="34.016" font-family="Virgil, Segoe UI Emoji" font-size="16px" fill="#000" text-anchor="middle" style="white-space: pre;" direction="ltr" dominant-baseline="alphabetic">scalability</text></g><g stroke-linecap="round"><g transform="translate(86.26953125 75) rotate(0 0.982421875 412.068359375)"><path d="M0 0 C2.16 258.11, 3.15 515.5, 1.96 824.14 M0 0 C0.9 201.6, 1.58 403, 1.96 824.14" stroke="#999" stroke-width="1" fill="none"></path></g></g><mask></mask><g stroke-linecap="round"><g transform="translate(313.26953125 75) rotate(0 2.513671875 412.17578125)"><path d="M0 0 C-1.49 261.12, -0.04 522.83, 5.03 824.35 M0 0 C-0.81 321.93, 1 644.24, 5.03 824.35" stroke="#999" stroke-width="1" fill="none"></path></g></g><mask></mask><g stroke-linecap="round"><g transform="translate(552.26953125 75) rotate(0 -1.53515625 414.6875)"><path d="M0 0 C-2.68 276.09, -2.53 551.18, -3.07 829.38 M0 0 C-2.21 236.42, -2.76 473.34, -3.07 829.38" stroke="#999" stroke-width="1" fill="none"></path></g></g><mask></mask><g stroke-linecap="round"><g transform="translate(802.03125 75.2421875) rotate(0 0.9609375 409.416015625)"><path d="M0 0 C-0.56 224.05, -0.87 449.14, 1.92 818.83 M0 0 C-1.92 176.8, -1.64 353.71, 1.92 818.83" stroke="#999" stroke-width="1" fill="none"></path></g></g><mask></mask><g mask="url(#mask--UzbVzK-Gk7furA4wLbwq)" stroke-linecap="round"><g transform="translate(87.76953125 111) rotate(0 110.5 0)"><path d="M-0.96 -0.17 C35.76 -0.52, 183.77 -0.89, 220.62 -1.01 M0.73 -1.31 C37.24 -1.03, 182.5 -0.22, 219.48 0" stroke="#1e1e1e" stroke-width="2" fill="none"></path></g><g transform="translate(87.76953125 111) rotate(0 110.5 0)"><path d="M195.94 8.42 C203.16 5.26, 209.36 1.73, 219.48 0 M195.94 8.42 C201.05 6.42, 206.01 4.54, 219.48 0" stroke="#1e1e1e" stroke-width="2" fill="none"></path></g><g transform="translate(87.76953125 111) rotate(0 110.5 0)"><path d="M196.04 -8.69 C203.38 -6.32, 209.55 -4.34, 219.48 0 M196.04 -8.69 C201.14 -6.78, 206.08 -4.75, 219.48 0" stroke="#1e1e1e" stroke-width="2" fill="none"></path></g></g><mask id="mask--UzbVzK-Gk7furA4wLbwq"><rect x="0" y="0" fill="#fff" width="408.76953125" height="211"></rect><rect x="138.24557495117188" y="101" fill="#000" width="120.04791259765625" height="20" opacity="1"></rect></mask><g transform="translate(138.24557495117188 101) rotate(0 59.354473764821705 9.344027154892501)"><text x="60.023956298828125" y="14.016" font-family="Virgil, Segoe UI Emoji" font-size="16px" fill="#1e1e1e" text-anchor="middle" style="white-space: pre;" direction="ltr" dominant-baseline="alphabetic">Selects problem</text></g><g mask="url(#mask-ZX9g0gLYj0QfbkwZZbd8-)" stroke-linecap="round"><g transform="translate(314.76953125 157) rotate(0 116.5 0)"><path d="M-0.38 -1.01 C38.47 -1.12, 193.22 -0.99, 232.13 -0.86 M1.63 1.08 C40.94 1.11, 195.93 0.25, 234.39 0.22" stroke="#1e1e1e" stroke-width="2" fill="none"></path></g><g transform="translate(314.76953125 157) rotate(0 116.5 0)"><path d="M210.93 8.85 C214.42 5.59, 219.82 5.31, 234.39 0.22 M210.93 8.85 C216.81 6.4, 224.4 4.08, 234.39 0.22" stroke="#1e1e1e" stroke-width="2" fill="none"></path></g><g transform="translate(314.76953125 157) rotate(0 116.5 0)"><path d="M210.87 -8.25 C214.35 -7.76, 219.76 -4.27, 234.39 0.22 M210.87 -8.25 C216.73 -5.94, 224.33 -3.49, 234.39 0.22" stroke="#1e1e1e" stroke-width="2" fill="none"></path></g></g><mask id="mask-ZX9g0gLYj0QfbkwZZbd8-"><rect x="0" y="0" fill="#fff" width="647.76953125" height="257"></rect><rect x="347.4055938720703" y="147" fill="#000" width="167.72787475585938" height="20" opacity="1"></rect></mask><g transform="translate(347.4055938720703 147) rotate(0 84.37038428235792 10.013729325222812)"><text x="83.86393737792969" y="14.016" font-family="Virgil, Segoe UI Emoji" font-size="16px" fill="#1e1e1e" text-anchor="middle" style="white-space: pre;" direction="ltr" dominant-baseline="alphabetic">Fetch problem details</text></g><g mask="url(#mask-X-Kp0bawTmAb2vdAqMFG2)" stroke-linecap="round"><g transform="translate(550.76953125 203) rotate(0 -116.5 0)"><path d="M-0.87 -0.86 C-39.62 -0.74, -194.15 -0.37, -232.89 -0.26" stroke="#1e1e1e" stroke-width="2.5" fill="none" stroke-dasharray="1.5 8"></path></g><g transform="translate(550.76953125 203) rotate(0 -116.5 0)"><path d="M-209.42 -8.87 C-217.23 -6.55, -222.53 -4.92, -232.89 -0.26" stroke="#1e1e1e" stroke-width="2.5" fill="none" stroke-dasharray="1.5 6"></path></g><g transform="translate(550.76953125 203) rotate(0 -116.5 0)"><path d="M-209.38 8.23 C-217.06 5.96, -222.37 2.99, -232.89 -0.26" stroke="#1e1e1e" stroke-width="2.5" fill="none" stroke-dasharray="1.5 6"></path></g></g><mask id="mask-X-Kp0bawTmAb2vdAqMFG2"><rect x="0" y="0" fill="#fff" width="883.76953125" height="303"></rect><rect x="374.517578125" y="193" fill="#000" width="119.50390625" height="20" opacity="1"></rect></mask><g transform="translate(374.517578125 193) rotate(0 59.372086150571704 9.44127737171948)"><text x="59.751953125" y="14.016" font-family="Virgil, Segoe UI Emoji" font-size="16px" fill="#1e1e1e" text-anchor="middle" style="white-space: pre;" direction="ltr" dominant-baseline="alphabetic">Problem details</text></g><g mask="url(#mask-yB5jdOTHq5sh4AqRzbIpZ)" stroke-linecap="round"><g transform="translate(87.76953125 249) rotate(0 110.5 0)"><path d="M0.11 -0.26 C37.03 -0.14, 184.01 -0.18, 220.69 -0.15 M-1.3 -1.44 C35.52 -1.05, 182.26 0.87, 219.58 1.31" stroke="#1e1e1e" stroke-width="2" fill="none"></path></g><g transform="translate(87.76953125 249) rotate(0 110.5 0)"><path d="M195.99 9.56 C200.99 7.15, 206.54 4.44, 219.58 1.31 M195.99 9.56 C203.66 6.58, 209.7 4.02, 219.58 1.31" stroke="#1e1e1e" stroke-width="2" fill="none"></path></g><g transform="translate(87.76953125 249) rotate(0 110.5 0)"><path d="M196.2 -7.54 C201.03 -6.06, 206.53 -4.87, 219.58 1.31 M196.2 -7.54 C203.87 -5.52, 209.85 -3.09, 219.58 1.31" stroke="#1e1e1e" stroke-width="2" fill="none"></path></g></g><mask id="mask-yB5jdOTHq5sh4AqRzbIpZ"><rect x="0" y="0" fill="#fff" width="408.76953125" height="349"></rect><rect x="119.61358642578125" y="229" fill="#000" width="157.3118896484375" height="40" opacity="1"></rect></mask><g transform="translate(119.61358642578125 229) rotate(0 77.85462737876924 19.934492444544958)"><text x="78.65594482421875" y="14.016" font-family="Virgil, Segoe UI Emoji" font-size="16px" fill="#1e1e1e" text-anchor="middle" style="white-space: pre;" direction="ltr" dominant-baseline="alphabetic">Writes and submits </text><text x="78.65594482421875" y="34.016" font-family="Virgil, Segoe UI Emoji" font-size="16px" fill="#1e1e1e" text-anchor="middle" style="white-space: pre;" direction="ltr" dominant-baseline="alphabetic">code</text></g><g mask="url(#mask-Qcb2AJJd0NcBNx4OfaYZw)" stroke-linecap="round"><g transform="translate(314.76953125 295) rotate(0 116.5 0)"><path d="M-0.31 -0.15 C38.37 -0.12, 193.24 -0.12, 232.19 -0.1 M1.73 -1.28 C40.79 -1.03, 195.95 0.96, 234.48 1.39" stroke="#1e1e1e" stroke-width="2" fill="none"></path></g><g transform="translate(314.76953125 295) rotate(0 116.5 0)"><path d="M210.89 9.66 C217.95 5.82, 225.33 5.36, 234.48 1.39 M210.89 9.66 C217.87 6.59, 225.46 4.75, 234.48 1.39" stroke="#1e1e1e" stroke-width="2" fill="none"></path></g><g transform="translate(314.76953125 295) rotate(0 116.5 0)"><path d="M211.1 -7.44 C218.05 -5.99, 225.37 -1.17, 234.48 1.39 M211.1 -7.44 C218.15 -5.38, 225.68 -2.09, 234.48 1.39" stroke="#1e1e1e" stroke-width="2" fill="none"></path></g></g><mask id="mask-Qcb2AJJd0NcBNx4OfaYZw"><rect x="0" y="0" fill="#fff" width="647.76953125" height="395"></rect><rect x="365.32556915283203" y="275" fill="#000" width="131.88792419433594" height="40" opacity="1"></rect></mask><g transform="translate(365.32556915283203 275) rotate(0 66.53233813498173 20.057108446806524)"><text x="65.94396209716797" y="14.016" font-family="Virgil, Segoe UI Emoji" font-size="16px" fill="#1e1e1e" text-anchor="middle" style="white-space: pre;" direction="ltr" dominant-baseline="alphabetic">Submit code for </text><text x="65.94396209716797" y="34.016" font-family="Virgil, Segoe UI Emoji" font-size="16px" fill="#1e1e1e" text-anchor="middle" style="white-space: pre;" direction="ltr" dominant-baseline="alphabetic">execution</text></g><g mask="url(#mask-n7SmZ1KrfOlBBPDyyG0Ff)" stroke-linecap="round"><g transform="translate(553.76953125 341) rotate(0 122 0)"><path d="M-0.81 -0.1 C39.99 -0.07, 203.49 0.1, 244.45 0 M0.97 -1.19 C41.67 -0.95, 203.11 1.3, 243.74 1.54" stroke="#1e1e1e" stroke-width="2" fill="none"></path></g><g transform="translate(553.76953125 341) rotate(0 122 0)"><path d="M220.16 9.85 C226.48 8.47, 233.11 7.08, 243.74 1.54 M220.16 9.85 C226.36 7.92, 230.93 5.53, 243.74 1.54" stroke="#1e1e1e" stroke-width="2" fill="none"></path></g><g transform="translate(553.76953125 341) rotate(0 122 0)"><path d="M220.33 -7.25 C226.58 -3.93, 233.17 -0.64, 243.74 1.54 M220.33 -7.25 C226.49 -5.03, 231.02 -3.27, 243.74 1.54" stroke="#1e1e1e" stroke-width="2" fill="none"></path></g></g><mask id="mask-n7SmZ1KrfOlBBPDyyG0Ff"><rect x="0" y="0" fill="#fff" width="897.76953125" height="441"></rect><rect x="609.1535720825195" y="321" fill="#000" width="133.23191833496094" height="40" opacity="1"></rect></mask><g transform="translate(609.1535720825195 321) rotate(0 66.43806256763628 20.174584764391057)"><text x="66.61595916748047" y="14.016" font-family="Virgil, Segoe UI Emoji" font-size="16px" fill="#1e1e1e" text-anchor="middle" style="white-space: pre;" direction="ltr" dominant-baseline="alphabetic">Create isolated </text><text x="66.61595916748047" y="34.016" font-family="Virgil, Segoe UI Emoji" font-size="16px" fill="#1e1e1e" text-anchor="middle" style="white-space: pre;" direction="ltr" dominant-baseline="alphabetic">environment</text></g><g mask="url(#mask-fKaCaDcpxQqU5wzhPYtM0)" stroke-linecap="round"><g transform="translate(800.76953125 387) rotate(0 -122 0)"><path d="M0.45 0 C-39.92 -0.1, -202.27 -0.54, -243.02 -0.68" stroke="#1e1e1e" stroke-width="2.5" fill="none" stroke-dasharray="1.5 8"></path></g><g transform="translate(800.76953125 387) rotate(0 -122 0)"><path d="M-219.5 -9.16 C-224.98 -5.47, -231.61 -5.2, -243.02 -0.68" stroke="#1e1e1e" stroke-width="2.5" fill="none" stroke-dasharray="1.5 6"></path></g><g transform="translate(800.76953125 387) rotate(0 -122 0)"><path d="M-219.56 7.94 C-225.01 7.65, -231.62 3.93, -243.02 -0.68" stroke="#1e1e1e" stroke-width="2.5" fill="none" stroke-dasharray="1.5 6"></path></g></g><mask id="mask-fKaCaDcpxQqU5wzhPYtM0"><rect x="0" y="0" fill="#fff" width="1144.76953125" height="487"></rect><rect x="608.9455642700195" y="377" fill="#000" width="139.64793395996094" height="20" opacity="1"></rect></mask><g transform="translate(608.9455642700195 377) rotate(0 70.53743177168099 9.658960162475978)"><text x="69.82396697998047" y="14.016" font-family="Virgil, Segoe UI Emoji" font-size="16px" fill="#1e1e1e" text-anchor="middle" style="white-space: pre;" direction="ltr" dominant-baseline="alphabetic">Environment ready</text></g><g mask="url(#mask-tE3JvKea_uulUuYKn4QHg)" stroke-linecap="round"><g transform="translate(553.76953125 433) rotate(0 122 0)"><path d="M0.98 -0.68 C41.56 -0.83, 203.36 -0.96, 243.95 -0.87 M0.03 1.57 C40.41 1.55, 202.3 0.28, 242.98 0.22" stroke="#1e1e1e" stroke-width="2" fill="none"></path></g><g transform="translate(553.76953125 433) rotate(0 122 0)"><path d="M219.53 8.89 C226.31 5.69, 233.91 3.79, 242.98 0.22 M219.53 8.89 C226.17 6.18, 233.53 3.82, 242.98 0.22" stroke="#1e1e1e" stroke-width="2" fill="none"></path></g><g transform="translate(553.76953125 433) rotate(0 122 0)"><path d="M219.45 -8.22 C226.25 -5.64, 233.89 -1.77, 242.98 0.22 M219.45 -8.22 C226 -5.93, 233.37 -3.31, 242.98 0.22" stroke="#1e1e1e" stroke-width="2" fill="none"></path></g></g><mask id="mask-tE3JvKea_uulUuYKn4QHg"><rect x="0" y="0" fill="#fff" width="897.76953125" height="533"></rect><rect x="622.6735534667969" y="423" fill="#000" width="106.19195556640625" height="20" opacity="1"></rect></mask><g transform="translate(622.6735534667969 423) rotate(0 53.08906165976077 10.335280485441217)"><text x="53.095977783203125" y="14.016" font-family="Virgil, Segoe UI Emoji" font-size="16px" fill="#1e1e1e" text-anchor="middle" style="white-space: pre;" direction="ltr" dominant-baseline="alphabetic">Execute code</text></g><g mask="url(#mask-n9XmojgRAOAVqvmDM6zgk)" stroke-linecap="round"><g transform="translate(800.76953125 479) rotate(0 -122 0)"><path d="M-0.05 -0.87 C-40.78 -0.77, -202.64 -0.15, -243.43 -0.1" stroke="#1e1e1e" stroke-width="2.5" fill="none" stroke-dasharray="1.5 8"></path></g><g transform="translate(800.76953125 479) rotate(0 -122 0)"><path d="M-219.96 -8.71 C-230.41 -4.49, -238.09 -3.52, -243.43 -0.1" stroke="#1e1e1e" stroke-width="2.5" fill="none" stroke-dasharray="1.5 6"></path></g><g transform="translate(800.76953125 479) rotate(0 -122 0)"><path d="M-219.92 8.39 C-230.29 6.08, -237.98 0.53, -243.43 -0.1" stroke="#1e1e1e" stroke-width="2.5" fill="none" stroke-dasharray="1.5 6"></path></g></g><mask id="mask-n9XmojgRAOAVqvmDM6zgk"><rect x="0" y="0" fill="#fff" width="1144.76953125" height="579"></rect><rect x="614.1775665283203" y="469" fill="#000" width="129.18392944335938" height="20" opacity="1"></rect></mask><g transform="translate(614.1775665283203 469) rotate(0 64.85230978243044 9.51642750389874)"><text x="64.59196472167969" y="14.016" font-family="Virgil, Segoe UI Emoji" font-size="16px" fill="#1e1e1e" text-anchor="middle" style="white-space: pre;" direction="ltr" dominant-baseline="alphabetic">Execution result</text></g><g mask="url(#mask-lzNNVMWfs1D6octPypcEZ)" stroke-linecap="round"><g transform="translate(550.76953125 525) rotate(0 -116.5 0)"><path d="M0.57 -0.1 C-38.4 -0.05, -194.84 -0.51, -233.82 -0.55" stroke="#1e1e1e" stroke-width="2.5" fill="none" stroke-dasharray="1.5 8"></path></g><g transform="translate(550.76953125 525) rotate(0 -116.5 0)"><path d="M-210.31 -9.05 C-217.5 -7.79, -225.21 -4.42, -233.82 -0.55" stroke="#1e1e1e" stroke-width="2.5" fill="none" stroke-dasharray="1.5 6"></path></g><g transform="translate(550.76953125 525) rotate(0 -116.5 0)"><path d="M-210.35 8.05 C-217.41 4.25, -225.1 2.55, -233.82 -0.55" stroke="#1e1e1e" stroke-width="2.5" fill="none" stroke-dasharray="1.5 6"></path></g></g><mask id="mask-lzNNVMWfs1D6octPypcEZ"><rect x="0" y="0" fill="#fff" width="883.76953125" height="625"></rect><rect x="369.6775665283203" y="515" fill="#000" width="129.18392944335938" height="20" opacity="1"></rect></mask><g transform="translate(369.6775665283203 515) rotate(0 64.46400541774938 9.678588160406889)"><text x="64.59196472167969" y="14.016" font-family="Virgil, Segoe UI Emoji" font-size="16px" fill="#1e1e1e" text-anchor="middle" style="white-space: pre;" direction="ltr" dominant-baseline="alphabetic">Execution result</text></g><g mask="url(#mask-jWSwFjtd9m7iQc_MkKbPu)" stroke-linecap="round"><g transform="translate(310.13671875 556.5546875) rotate(0 -110.5 0)"><path d="M-0.82 -0.55 C-37.8 -0.59, -184.66 -0.41, -221.31 -0.34" stroke="#1e1e1e" stroke-width="2.5" fill="none" stroke-dasharray="1.5 8"></path></g><g transform="translate(310.13671875 556.5546875) rotate(0 -110.5 0)"><path d="M-197.83 -8.92 C-206.9 -6.62, -214.71 -2.61, -221.31 -0.34" stroke="#1e1e1e" stroke-width="2.5" fill="none" stroke-dasharray="1.5 6"></path></g><g transform="translate(310.13671875 556.5546875) rotate(0 -110.5 0)"><path d="M-197.8 8.18 C-206.87 4.54, -214.69 2.62, -221.31 -0.34" stroke="#1e1e1e" stroke-width="2.5" fill="none" stroke-dasharray="1.5 6"></path></g></g><mask id="mask-jWSwFjtd9m7iQc_MkKbPu"><rect x="0" y="0" fill="#fff" width="631.13671875" height="656.5546875"></rect><rect x="149.84475708007812" y="546.5546875" fill="#000" width="99.58392333984375" height="20" opacity="1"></rect></mask><g transform="translate(149.84475708007812 546.5546875) rotate(0 49.226022632047716 9.553845998892939)"><text x="49.791961669921875" y="14.016" font-family="Virgil, Segoe UI Emoji" font-size="16px" fill="#1e1e1e" text-anchor="middle" style="white-space: pre;" direction="ltr" dominant-baseline="alphabetic">Shows result</text></g><g stroke-linecap="round" transform="translate(979.5468901018648 11.77030217844549) rotate(0 84 32.3209523747596)"><path d="M0 0 C66.96 -1.76, 131.25 1.8, 168 0 M0 0 C41.01 0.06, 81.18 -0.07, 168 0 M168 0 C168.83 24.99, 168.31 48.61, 168 64.64 M168 0 C168.67 23.97, 168.63 47.19, 168 64.64 M168 64.64 C123.81 64.65, 82.42 63.63, 0 64.64 M168 64.64 C112.09 65.86, 53.55 65.65, 0 64.64 M0 64.64 C-0.99 42.74, -1.5 20.05, 0 0 M0 64.64 C-0.95 51.22, -0.14 37.28, 0 0" stroke="#1e1e1e" stroke-width="2" fill="none"></path></g><g transform="translate(1022.9309156755953 34.091254553204635) rotate(0 40.61597442626953 10)"><text x="40.61597442626953" y="14.016" font-family="Virgil, Segoe UI Emoji" font-size="16px" fill="#000" text-anchor="middle" style="white-space: pre;" direction="ltr" dominant-baseline="alphabetic">AI Service</text></g><g stroke-linecap="round" transform="translate(978.0312651018648 898.4055048473911) rotate(0 84 32.3209523747596)"><path d="M0 0 C49.99 3.27, 97.92 2.8, 168 0 M0 0 C54.22 -0.44, 109.18 -0.7, 168 0 M168 0 C168.54 24.03, 169.54 46.64, 168 64.64 M168 0 C169.5 15.43, 168.18 30.03, 168 64.64 M168 64.64 C110.02 62.1, 51.18 65.02, 0 64.64 M168 64.64 C107.69 65.31, 49.8 65.86, 0 64.64 M0 64.64 C-0.88 47.68, -1.54 32.59, 0 0 M0 64.64 C0.62 42.29, -0.6 20.13, 0 0" stroke="#1e1e1e" stroke-width="2" fill="none"></path></g><g transform="translate(1021.4152906755953 920.7264572221502) rotate(0 40.61597442626953 10)"><text x="40.61597442626953" y="14.016" font-family="Virgil, Segoe UI Emoji" font-size="16px" fill="#000" text-anchor="middle" style="white-space: pre;" direction="ltr" dominant-baseline="alphabetic">AI Service</text></g><g stroke-linecap="round"><g transform="translate(1063.5468901018648 76.65694490868736) rotate(0 -0.30078125 409.7710166911752)"><path d="M0 0 C0.14 170.79, 0.66 340.92, -0.6 819.54 M0 0 C0.07 282.41, -0.16 564.94, -0.6 819.54" stroke="#999" stroke-width="1" fill="none"></path></g></g><mask></mask><g mask="url(#mask-uB65PnzaYf_oISwR8VNPq)" stroke-linecap="round"><g transform="translate(86.16232624482927 602.3708864663768) rotate(0 231.90669224982184 -0.8094474424078726)"><path d="M-0.83 -0.57 C76.45 -0.86, 386.94 -2.03, 464.39 -2.04 M0.94 1.74 C78.05 1.65, 386.71 -0.03, 463.75 -0.72" stroke="#1e1e1e" stroke-width="1" fill="none"></path></g><g transform="translate(86.16232624482927 602.3708864663768) rotate(0 231.90669224982184 -0.8094474424078726)"><path d="M440.32 7.99 C447.8 5.99, 456.48 2, 463.75 -0.72 M440.32 7.99 C448.9 4.26, 458.96 0.92, 463.75 -0.72" stroke="#1e1e1e" stroke-width="1" fill="none"></path></g><g transform="translate(86.16232624482927 602.3708864663768) rotate(0 231.90669224982184 -0.8094474424078726)"><path d="M440.2 -9.11 C447.68 -4.97, 456.4 -2.82, 463.75 -0.72 M440.2 -9.11 C448.7 -6.27, 458.8 -3.04, 463.75 -0.72" stroke="#1e1e1e" stroke-width="1" fill="none"></path></g></g><mask id="mask-uB65PnzaYf_oISwR8VNPq"><rect x="0" y="0" fill="#fff" width="649.975710744473" height="703.9897813511925"></rect><rect x="259.6790648813694" y="564.0614390239689" fill="#000" width="116.7799072265625" height="75" opacity="1"></rect></mask><g transform="translate(259.6790648813694 564.0614390239689) rotate(0 58.26524732820735 38.159658803008824)"><text x="58.38995361328125" y="17.52" font-family="Virgil, Segoe UI Emoji" font-size="20px" fill="#1e1e1e" text-anchor="middle" style="white-space: pre;" direction="ltr" dominant-baseline="alphabetic">ask doubt</text><text x="58.38995361328125" y="42.519999999999996" font-family="Virgil, Segoe UI Emoji" font-size="20px" fill="#1e1e1e" text-anchor="middle" style="white-space: pre;" direction="ltr" dominant-baseline="alphabetic">{ question, </text><text x="58.38995361328125" y="67.52" font-family="Virgil, Segoe UI Emoji" font-size="20px" fill="#1e1e1e" text-anchor="middle" style="white-space: pre;" direction="ltr" dominant-baseline="alphabetic">approach }</text></g><g mask="url(#mask-wvBfna-86GyXH887z3uv-)" stroke-linecap="round"><g transform="translate(548.6285384993362 617.1138060827225) rotate(0 257.48437335841254 -1.2728060490157986)"><path d="M0.95 -1.17 C86.59 -1.67, 428.8 -2.5, 514.38 -2.68 M-0.02 0.83 C85.98 0.5, 431.22 -0.95, 516.79 -1.22" stroke="#1e1e1e" stroke-width="1" fill="none"></path></g><g transform="translate(548.6285384993362 617.1138060827225) rotate(0 257.48437335841254 -1.2728060490157986)"><path d="M493.33 7.42 C499.44 3.28, 509.24 0.41, 516.79 -1.22 M493.33 7.42 C500.05 5.53, 509.47 0.97, 516.79 -1.22" stroke="#1e1e1e" stroke-width="1" fill="none"></path></g><g transform="translate(548.6285384993362 617.1138060827225) rotate(0 257.48437335841254 -1.2728060490157986)"><path d="M493.26 -9.68 C499.44 -7.93, 509.26 -4.91, 516.79 -1.22 M493.26 -9.68 C499.84 -6.01, 509.27 -5.01, 516.79 -1.22" stroke="#1e1e1e" stroke-width="1" fill="none"></path></g></g><mask id="mask-wvBfna-86GyXH887z3uv-"><rect x="0" y="0" fill="#fff" width="1163.5972852161613" height="719.6594181807541"></rect><rect x="751.6529509202483" y="603.3410000337071" fill="#000" width="108.919921875" height="25" opacity="1"></rect></mask><g transform="translate(751.6529509202483 603.3410000337071) rotate(0 55.36097517594726 12.845759499780343)"><text x="54.4599609375" y="17.52" font-family="Virgil, Segoe UI Emoji" font-size="20px" fill="#1e1e1e" text-anchor="middle" style="white-space: pre;" direction="ltr" dominant-baseline="alphabetic">send to AI</text></g><g mask="url(#mask-ralr_5fgtpe5LcUC-Q64s)" stroke-linecap="round"><g transform="translate(1061.4285562241512 670.8147803979364) rotate(0 -256.91315083819836 2.180931713201062)"><path d="M0.28 -1.16 C-85.27 -0.47, -427 4.28, -512.88 5.23" stroke="#1e1e1e" stroke-width="2.5" fill="none" stroke-dasharray="1.5 8"></path></g><g transform="translate(1061.4285562241512 670.8147803979364) rotate(0 -256.91315083819836 2.180931713201062)"><path d="M-489.5 -3.62 C-499.17 0.97, -503.6 0.44, -512.88 5.23" stroke="#1e1e1e" stroke-width="2.5" fill="none" stroke-dasharray="1.5 6"></path></g><g transform="translate(1061.4285562241512 670.8147803979364) rotate(0 -256.91315083819836 2.180931713201062)"><path d="M-489.28 13.48 C-499.17 12.36, -503.68 6.11, -512.88 5.23" stroke="#1e1e1e" stroke-width="2.5" fill="none" stroke-dasharray="1.5 6"></path></g></g><mask id="mask-ralr_5fgtpe5LcUC-Q64s"><rect x="0" y="0" fill="#fff" width="1675.254857900548" height="775.1766438243385"></rect><rect x="726.635446279508" y="652.9957121111374" fill="#000" width="155.75991821289062" height="40" opacity="1"></rect></mask><g transform="translate(726.635446279508 652.9957121111374) rotate(0 78.49416333325189 19.852232189103688)"><text x="77.87995910644531" y="14.016" font-family="Virgil, Segoe UI Emoji" font-size="16px" fill="#1e1e1e" text-anchor="middle" style="white-space: pre;" direction="ltr" dominant-baseline="alphabetic">return explanation, </text><text x="77.87995910644531" y="34.016" font-family="Virgil, Segoe UI Emoji" font-size="16px" fill="#1e1e1e" text-anchor="middle" style="white-space: pre;" direction="ltr" dominant-baseline="alphabetic">no code</text></g><g mask="url(#mask-WeIzxP0e7EWoYMFZiAVoQ)" stroke-linecap="round"><g transform="translate(548.0780846576663 714.1402402349395) rotate(0 -229.44914256258244 1.657508102032807)"><path d="M1.18 -1.03 C-75.51 -0.39, -382.94 2.26, -459.66 2.97" stroke="#1e1e1e" stroke-width="2.5" fill="none" stroke-dasharray="1.5 8"></path></g><g transform="translate(548.0780846576663 714.1402402349395) rotate(0 -229.44914256258244 1.657508102032807)"><path d="M-436.25 -5.79 C-446.06 -3.82, -452.95 0.03, -459.66 2.97" stroke="#1e1e1e" stroke-width="2.5" fill="none" stroke-dasharray="1.5 6"></path></g><g transform="translate(548.0780846576663 714.1402402349395) rotate(0 -229.44914256258244 1.657508102032807)"><path d="M-436.09 11.31 C-445.84 7.41, -452.78 5.39, -459.66 2.97" stroke="#1e1e1e" stroke-width="2.5" fill="none" stroke-dasharray="1.5 6"></path></g></g><mask id="mask-WeIzxP0e7EWoYMFZiAVoQ"><rect x="0" y="0" fill="#fff" width="1106.9763697828312" height="817.4552564390051"></rect><rect x="260.6609702933256" y="705.7977483369723" fill="#000" width="115.93594360351562" height="20" opacity="1"></rect></mask><g transform="translate(260.6609702933256 705.7977483369723) rotate(0 58.17831991426692 9.313738905265836)"><text x="57.96797180175781" y="14.016" font-family="Virgil, Segoe UI Emoji" font-size="16px" fill="#1e1e1e" text-anchor="middle" style="white-space: pre;" direction="ltr" dominant-baseline="alphabetic">return text   </text></g></svg>