<svg version="1.1" xmlns="http://www.w3.org/2000/svg" viewBox="0 0 2404.484375 346" width="2404.484375" height="346">
  <!-- svg-source:excalidraw -->
  
  <defs>
    <style class="style-fonts">
      @font-face {
        font-family: "Virgil";
        src: url("https://excalidraw.com/Virgil.woff2");
      }
      @font-face {
        font-family: "Cascadia";
        src: url("https://excalidraw.com/Cascadia.woff2");
      }
      @font-face {
        font-family: "Assistant";
        src: url("https://excalidraw.com/Assistant-Regular.woff2");
      }
    </style>
    
  </defs>
  <rect x="0" y="0" width="2404.484375" height="346" fill="#ffffff"></rect><g stroke-linecap="round" transform="translate(1275.2890625 10) rotate(0 163.0859375 22)"><path d="M0 0 C112.3 -1.06, 226.64 -0.46, 326.17 0 M0 0 C71.18 1.44, 142.11 1.52, 326.17 0 M326.17 0 C325.69 16.9, 326.66 35.23, 326.17 44 M326.17 0 C325.04 9.81, 325.18 18.2, 326.17 44 M326.17 44 C196.8 45.39, 67.46 46.67, 0 44 M326.17 44 C226.57 43.15, 127.18 43.03, 0 44 M0 44 C-0.29 34.21, 1.51 21.6, 0 0 M0 44 C-0.02 30.77, -1.01 16.54, 0 0" stroke="#1e1e1e" stroke-width="2" fill="none"></path></g><g transform="translate(1299.8251342773438 19.5) rotate(0 138.54986572265625 12.5)"><text x="138.54986572265625" y="17.52" font-family="Virgil, Segoe UI Emoji" font-size="20px" fill="#1e1e1e" text-anchor="middle" style="white-space: pre;" direction="ltr" dominant-baseline="alphabetic">CPMasters System Overview</text></g><g stroke-linecap="round" transform="translate(835.14453125 104) rotate(0 98.3984375 22)"><path d="M0 0 C57.26 0.85, 114.19 0.77, 196.8 0 M0 0 C49.98 -0.52, 101.49 -1.1, 196.8 0 M196.8 0 C197.08 16.91, 194.81 29.23, 196.8 44 M196.8 0 C195.61 12.53, 197.37 25.82, 196.8 44 M196.8 44 C122.44 44.43, 45.79 43.55, 0 44 M196.8 44 C142.02 42.01, 85.84 42.91, 0 44 M0 44 C1.61 27.61, 0.26 10.04, 0 0 M0 44 C-0.98 32.05, 0.04 21.03, 0 0" stroke="#1e1e1e" stroke-width="2" fill="none"></path></g><g transform="translate(855.1230316162109 113.5) rotate(0 78.41993713378906 12.5)"><text x="78.41993713378906" y="17.52" font-family="Virgil, Segoe UI Emoji" font-size="20px" fill="#1e1e1e" text-anchor="middle" style="white-space: pre;" direction="ltr" dominant-baseline="alphabetic">Backend Service</text></g><g stroke-linecap="round" transform="translate(10 198) rotate(0 110.40625 22)"><path d="M0 0 C45.72 0, 93.51 0.8, 220.81 0 M0 0 C81.32 -1.3, 161.63 -1.71, 220.81 0 M220.81 0 C219.04 12.66, 220.59 25.41, 220.81 44 M220.81 0 C221.45 17.09, 221.31 32.94, 220.81 44 M220.81 44 C162.6 45.31, 103.87 45.25, 0 44 M220.81 44 C167.7 42.59, 116.01 42.39, 0 44 M0 44 C-0.14 27.13, -0.99 9.91, 0 0 M0 44 C0.47 29.56, 0.38 13.96, 0 0" stroke="#1e1e1e" stroke-width="2" fill="none"></path></g><g transform="translate(30.686325073242188 207.5) rotate(0 89.71992492675781 12.5)"><text x="89.71992492675781" y="17.52" font-family="Virgil, Segoe UI Emoji" font-size="20px" fill="#1e1e1e" text-anchor="middle" style="white-space: pre;" direction="ltr" dominant-baseline="alphabetic">NestJS Framework</text></g><g stroke-linecap="round" transform="translate(1958.75 104) rotate(0 102.171875 22)"><path d="M0 0 C51.83 0.84, 106.4 0.21, 204.34 0 M0 0 C77.33 -0.59, 153.97 -0.16, 204.34 0 M204.34 0 C203.63 15.36, 205.35 32.83, 204.34 44 M204.34 0 C205.61 13.5, 204.41 27.03, 204.34 44 M204.34 44 C131.07 44.4, 57.39 45.14, 0 44 M204.34 44 C159.91 44.1, 114.69 44.9, 0 44 M0 44 C-0.69 29.33, 0.78 12.64, 0 0 M0 44 C-0.07 31.55, 0.56 19.7, 0 0" stroke="#1e1e1e" stroke-width="2" fill="none"></path></g><g transform="translate(1980.4319458007812 113.5) rotate(0 80.48992919921875 12.5)"><text x="80.48992919921875" y="17.52" font-family="Virgil, Segoe UI Emoji" font-size="20px" fill="#1e1e1e" text-anchor="middle" style="white-space: pre;" direction="ltr" dominant-baseline="alphabetic">Frontend Service</text></g><g stroke-linecap="round" transform="translate(1937.359375 198) rotate(0 123.5625 22)"><path d="M0 0 C63.64 -0.58, 126.4 1.32, 247.13 0 M0 0 C78.83 0.74, 158.25 -0.19, 247.13 0 M247.13 0 C248.48 9.52, 247.06 24.14, 247.13 44 M247.13 0 C247.13 17.19, 248.06 33.23, 247.13 44 M247.13 44 C168.87 45.03, 91.32 43.58, 0 44 M247.13 44 C170.92 44.39, 93.55 43.83, 0 44 M0 44 C0.97 28.44, -0.2 16.84, 0 0 M0 44 C0.6 28.85, 0.67 12.15, 0 0" stroke="#1e1e1e" stroke-width="2" fill="none"></path></g><g transform="translate(1952.5919647216797 207.5) rotate(0 108.32991027832031 12.5)"><text x="108.32991027832031" y="17.52" font-family="Virgil, Segoe UI Emoji" font-size="20px" fill="#1e1e1e" text-anchor="middle" style="white-space: pre;" direction="ltr" dominant-baseline="alphabetic">Interactive Interface</text></g><g stroke-linecap="round" transform="translate(1181.33984375 292) rotate(0 108.6484375 22)"><path d="M0 0 C66.39 2.07, 130.43 1.44, 217.3 0 M0 0 C59.82 -1.19, 117.64 -0.52, 217.3 0 M217.3 0 C217.62 11.12, 219.15 20, 217.3 44 M217.3 0 C217.71 14.53, 217.26 28.75, 217.3 44 M217.3 44 C148.67 44.31, 82.98 46.5, 0 44 M217.3 44 C155.07 45.56, 92.32 45.19, 0 44 M0 44 C-0.52 30.8, 0.98 17.32, 0 0 M0 44 C0.39 30.48, 0.52 17.34, 0 0" stroke="#1e1e1e" stroke-width="2" fill="none"></path></g><g transform="translate(1206.308364868164 301.5) rotate(0 83.67991638183594 12.5)"><text x="83.67991638183594" y="17.52" font-family="Virgil, Segoe UI Emoji" font-size="20px" fill="#1e1e1e" text-anchor="middle" style="white-space: pre;" direction="ltr" dominant-baseline="alphabetic">Problem Selection</text></g><g stroke-linecap="round" transform="translate(1448.63671875 292) rotate(0 79.3046875 22)"><path d="M0 0 C42.2 -0.4, 83.09 -1.07, 158.61 0 M0 0 C50.31 1.32, 100.66 2.19, 158.61 0 M158.61 0 C160.15 11.43, 159.19 18.78, 158.61 44 M158.61 0 C158.99 15.67, 158.95 31.11, 158.61 44 M158.61 44 C103.17 45.17, 47.03 45.16, 0 44 M158.61 44 C98.78 43.84, 38.77 44.57, 0 44 M0 44 C1.24 34.97, 0.07 27.27, 0 0 M0 44 C0.49 27.85, -0.87 12.34, 0 0" stroke="#1e1e1e" stroke-width="2" fill="none"></path></g><g transform="translate(1468.3314590454102 301.5) rotate(0 59.609947204589844 12.5)"><text x="59.609947204589844" y="17.52" font-family="Virgil, Segoe UI Emoji" font-size="20px" fill="#1e1e1e" text-anchor="middle" style="white-space: pre;" direction="ltr" dominant-baseline="alphabetic">Code Writing</text></g><g stroke-linecap="round" transform="translate(1973.625 292) rotate(0 68.46875 22)"><path d="M0 0 C51.42 -0.4, 104.38 1.23, 136.94 0 M0 0 C27.4 0.92, 55.85 0.21, 136.94 0 M136.94 0 C137.85 16.79, 138.48 36.15, 136.94 44 M136.94 0 C137.09 12.84, 137.5 26.1, 136.94 44 M136.94 44 C100.76 46.96, 66.62 45.89, 0 44 M136.94 44 C94.5 43.97, 51.05 43.39, 0 44 M0 44 C-0.26 31.74, 0.96 18.47, 0 0 M0 44 C-0.93 32.32, -0.51 19.89, 0 0" stroke="#1e1e1e" stroke-width="2" fill="none"></path></g><g transform="translate(1993.4738082885742 301.5) rotate(0 48.61994171142578 12.5)"><text x="48.61994171142578" y="17.52" font-family="Virgil, Segoe UI Emoji" font-size="20px" fill="#1e1e1e" text-anchor="middle" style="white-space: pre;" direction="ltr" dominant-baseline="alphabetic">Submission</text></g><g stroke-linecap="round" transform="translate(280.8125 198) rotate(0 141.765625 22)"><path d="M0 0 C97.59 1.18, 193.14 -0.94, 283.53 0 M0 0 C80.11 -1.53, 162.15 -0.95, 283.53 0 M283.53 0 C284.87 18.03, 283.77 34.04, 283.53 44 M283.53 0 C284.08 11.57, 283.2 24.84, 283.53 44 M283.53 44 C174.68 46.42, 63.62 46.04, 0 44 M283.53 44 C206.92 44.76, 131.82 45.33, 0 44 M0 44 C1.21 32.3, -0.66 19.55, 0 0 M0 44 C0.09 31.42, 0.33 19.24, 0 0" stroke="#1e1e1e" stroke-width="2" fill="none"></path></g><g transform="translate(310.1082229614258 207.5) rotate(0 112.46990203857422 12.5)"><text x="112.46990203857422" y="17.52" font-family="Virgil, Segoe UI Emoji" font-size="20px" fill="#1e1e1e" text-anchor="middle" style="white-space: pre;" direction="ltr" dominant-baseline="alphabetic">Execution Environments</text></g><g stroke-linecap="round" transform="translate(246.796875 292) rotate(0 175.78125 22)"><path d="M0 0 C107.63 -2.69, 217.47 -3.26, 351.56 0 M0 0 C131.08 0.49, 261.43 0.18, 351.56 0 M351.56 0 C351.94 11.87, 351.45 23.43, 351.56 44 M351.56 0 C351.41 10.63, 352.67 20.91, 351.56 44 M351.56 44 C215.32 44.91, 78.41 44.81, 0 44 M351.56 44 C231.59 43.99, 111.53 43.61, 0 44 M0 44 C-0.92 29.81, -0.82 11.34, 0 0 M0 44 C0.14 29.63, 0.01 17.24, 0 0" stroke="#1e1e1e" stroke-width="2" fill="none"></path></g><g transform="translate(269.4182434082031 301.5) rotate(0 153.15988159179688 12.5)"><text x="153.15988159179688" y="17.52" font-family="Virgil, Segoe UI Emoji" font-size="20px" fill="#1e1e1e" text-anchor="middle" style="white-space: pre;" direction="ltr" dominant-baseline="alphabetic">Secure and Isolated Execution</text></g><g stroke-linecap="round" transform="translate(614.34375 198) rotate(0 141.890625 22)"><path d="M0 0 C110.69 -0.36, 222.93 -0.16, 283.78 0 M0 0 C85.85 -1.44, 170.16 -1.2, 283.78 0 M283.78 0 C283.42 15.89, 282.59 32.43, 283.78 44 M283.78 0 C284.5 9.61, 284.49 20.25, 283.78 44 M283.78 44 C188.38 44.24, 94.6 42.74, 0 44 M283.78 44 C203.44 45.25, 123.61 45.72, 0 44 M0 44 C-0.41 26.77, 0.3 11.55, 0 0 M0 44 C-0.1 33.79, 0.91 23.59, 0 0" stroke="#1e1e1e" stroke-width="2" fill="none"></path></g><g transform="translate(643.6744689941406 207.5) rotate(0 112.55990600585938 12.5)"><text x="112.55990600585938" y="17.52" font-family="Virgil, Segoe UI Emoji" font-size="20px" fill="#1e1e1e" text-anchor="middle" style="white-space: pre;" direction="ltr" dominant-baseline="alphabetic">Programming Languages</text></g><g stroke-linecap="round" transform="translate(948.125 198) rotate(0 103.1328125 22)"><path d="M0 0 C53.25 0.29, 103.99 3.42, 206.27 0 M0 0 C77.43 0.01, 156 -0.48, 206.27 0 M206.27 0 C204.96 14.78, 204.61 26.76, 206.27 44 M206.27 0 C207.53 14.48, 207 27.49, 206.27 44 M206.27 44 C143.11 42.32, 78.19 44.13, 0 44 M206.27 44 C132.9 44.53, 59.08 43.7, 0 44 M0 44 C0.28 27.04, -1.09 10.9, 0 0 M0 44 C0.97 35.08, -0.67 24.28, 0 0" stroke="#1e1e1e" stroke-width="2" fill="none"></path></g><g transform="translate(964.9478988647461 207.5) rotate(0 86.3099136352539 12.5)"><text x="86.3099136352539" y="17.52" font-family="Virgil, Segoe UI Emoji" font-size="20px" fill="#1e1e1e" text-anchor="middle" style="white-space: pre;" direction="ltr" dominant-baseline="alphabetic">Result Processing</text></g><g stroke-linecap="round" transform="translate(1204.390625 198) rotate(0 97.515625 22)"><path d="M0 0 C40.62 3.49, 82.76 3.21, 195.03 0 M0 0 C64.71 -1.12, 128.41 -1.37, 195.03 0 M195.03 0 C193.19 12.87, 194.99 29, 195.03 44 M195.03 0 C195.76 12.76, 195.52 25, 195.03 44 M195.03 44 C135.76 42.21, 78.34 42.02, 0 44 M195.03 44 C137.22 44.85, 78.89 44.9, 0 44 M0 44 C-1.24 33.51, -1.67 22.62, 0 0 M0 44 C-1.11 28.81, -0.53 15.66, 0 0" stroke="#1e1e1e" stroke-width="2" fill="none"></path></g><g transform="translate(1226.876319885254 207.5) rotate(0 75.0299301147461 12.5)"><text x="75.0299301147461" y="17.52" font-family="Virgil, Segoe UI Emoji" font-size="20px" fill="#1e1e1e" text-anchor="middle" style="white-space: pre;" direction="ltr" dominant-baseline="alphabetic">High Availability</text></g><g stroke-linecap="round" transform="translate(1449.421875 198) rotate(0 65.4296875 22)"><path d="M0 0 C30.53 0.4, 58.55 -2, 130.86 0 M0 0 C47.29 -0.26, 94.43 -0.68, 130.86 0 M130.86 0 C130.74 17.2, 130.27 32.64, 130.86 44 M130.86 0 C131.11 16.3, 131.03 33.66, 130.86 44 M130.86 44 C105.42 43.97, 77.65 45.22, 0 44 M130.86 44 C84.45 43.29, 35.89 43.65, 0 44 M0 44 C-1.37 31.42, 0.93 20.99, 0 0 M0 44 C0.19 28.83, -0.52 12.67, 0 0" stroke="#1e1e1e" stroke-width="2" fill="none"></path></g><g transform="translate(1465.3516082763672 207.5) rotate(0 49.49995422363281 12.5)"><text x="49.49995422363281" y="17.52" font-family="Virgil, Segoe UI Emoji" font-size="20px" fill="#1e1e1e" text-anchor="middle" style="white-space: pre;" direction="ltr" dominant-baseline="alphabetic">Scalability</text></g><g stroke-linecap="round" transform="translate(1630.28125 198) rotate(0 128.5390625 22)"><path d="M0 0 C102.75 -2.32, 205.54 -0.82, 257.08 0 M0 0 C78.63 -0.1, 157.53 -0.24, 257.08 0 M257.08 0 C256.88 13.3, 258.68 23.78, 257.08 44 M257.08 0 C257.14 14.06, 256.15 27.12, 257.08 44 M257.08 44 C178.7 44.84, 101.31 44.95, 0 44 M257.08 44 C187.93 43.49, 119.59 42.94, 0 44 M0 44 C1.03 32.38, 1.7 15.61, 0 0 M0 44 C-0.78 34.11, -0.69 22.54, 0 0" stroke="#1e1e1e" stroke-width="2" fill="none"></path></g><g transform="translate(1653.810401916504 207.5) rotate(0 105.0099105834961 12.5)"><text x="105.0099105834961" y="17.52" font-family="Virgil, Segoe UI Emoji" font-size="20px" fill="#1e1e1e" text-anchor="middle" style="white-space: pre;" direction="ltr" dominant-baseline="alphabetic">Performance Tracking</text></g><g stroke-linecap="round" transform="translate(2160.5625 292) rotate(0 116.9609375 22)"><path d="M0 0 C90.84 1.67, 179.73 0.92, 233.92 0 M0 0 C66.15 0.54, 131.12 1.3, 233.92 0 M233.92 0 C235.42 17.76, 234.07 34.35, 233.92 44 M233.92 0 C232.96 11.6, 233.98 24.13, 233.92 44 M233.92 44 C165.82 46.23, 95.11 46.45, 0 44 M233.92 44 C170.13 43.64, 106.68 43.46, 0 44 M0 44 C1.2 29.7, -1.21 17.96, 0 0 M0 44 C-0.38 26.75, 1.15 8.22, 0 0" stroke="#1e1e1e" stroke-width="2" fill="none"></path></g><g transform="translate(2174.1335220336914 301.5) rotate(0 103.3899154663086 12.5)"><text x="103.3899154663086" y="17.52" font-family="Virgil, Segoe UI Emoji" font-size="20px" fill="#1e1e1e" text-anchor="middle" style="white-space: pre;" direction="ltr" dominant-baseline="alphabetic">AI Chat for Solution</text></g><g stroke-linecap="round"><g transform="translate(1275.2889999999998 47.68299999999999) rotate(0 -170.87300000000005 25.258499999999913)"><path d="M0.68 0.07 C-56.18 5.13, -284.54 22.8, -341.59 31.09 C-398.65 39.37, -341.71 46.7, -341.63 49.79 M-0.42 -0.94 C-57.39 4.24, -285.48 23.9, -342.46 32.51 C-399.45 41.12, -342.65 47.77, -342.34 50.72" stroke="#1e1e1e" stroke-width="2" fill="none"></path></g><g transform="translate(1275.2889999999998 47.68299999999999) rotate(0 -170.87300000000005 25.258499999999913)"><path d="M-351.93 51.01 C-349.35 51, -347.05 50.89, -342.34 50.72 M-351.93 51.01 C-349.82 51.07, -346.92 50.89, -342.34 50.72" stroke="#1e1e1e" stroke-width="2" fill="none"></path></g><g transform="translate(1275.2889999999998 47.68299999999999) rotate(0 -170.87300000000005 25.258499999999913)"><path d="M-349.88 44.78 C-347.8 46.42, -346.04 47.96, -342.34 50.72 M-349.88 44.78 C-348.22 46.31, -345.82 47.62, -342.34 50.72" stroke="#1e1e1e" stroke-width="2" fill="none"></path></g></g><mask></mask><g stroke-linecap="round"><g transform="translate(1601.4610000000002 44.8119999999999) rotate(0 229.73050000000012 26.69399999999996)"><path d="M0.15 -0.23 C76.63 5.34, 382.92 24.68, 459.58 33.46 C536.23 42.24, 460.17 49.1, 460.07 52.44 M-1.23 -1.39 C75.05 4.31, 381.88 25.5, 458.69 34.61 C535.5 43.72, 459.57 49.92, 459.63 53.27" stroke="#1e1e1e" stroke-width="2" fill="none"></path></g><g transform="translate(1601.4610000000002 44.8119999999999) rotate(0 229.73050000000012 26.69399999999996)"><path d="M467.51 47.78 C464.52 49.84, 461.3 52.2, 459.63 53.27 M467.51 47.78 C466.17 48.95, 464.42 50.59, 459.63 53.27" stroke="#1e1e1e" stroke-width="2" fill="none"></path></g><g transform="translate(1601.4610000000002 44.8119999999999) rotate(0 229.73050000000012 26.69399999999996)"><path d="M469.19 54.13 C465.59 53.92, 461.78 54.01, 459.63 53.27 M469.19 54.13 C467.5 53.89, 465.38 54.13, 459.63 53.27" stroke="#1e1e1e" stroke-width="2" fill="none"></path></g></g><mask></mask><g stroke-linecap="round"><g transform="translate(835.1450000000004 132.1880000000001) rotate(0 -357.3694999999998 30.005999999999858)"><path d="M0.11 -0.73 C-118.93 5.95, -594.91 29.72, -714.13 39.87 C-833.34 50.01, -715.26 56.81, -715.19 60.15 M-1.29 1.5 C-120.45 8.32, -595.6 30.9, -714.75 40.91 C-833.91 50.92, -715.89 58.21, -716.19 61.54" stroke="#1e1e1e" stroke-width="2" fill="none"></path></g><g transform="translate(835.1450000000004 132.1880000000001) rotate(0 -357.3694999999998 30.005999999999858)"><path d="M-725.66 63.15 C-723.28 63.12, -720.49 61.77, -716.19 61.54 M-725.66 63.15 C-722.3 63.03, -719.61 62.2, -716.19 61.54" stroke="#1e1e1e" stroke-width="2" fill="none"></path></g><g transform="translate(835.1450000000004 132.1880000000001) rotate(0 -357.3694999999998 30.005999999999858)"><path d="M-724.48 56.69 C-722.48 58.68, -720.06 59.35, -716.19 61.54 M-724.48 56.69 C-721.43 58.58, -719.11 59.76, -716.19 61.54" stroke="#1e1e1e" stroke-width="2" fill="none"></path></g></g><mask></mask><g stroke-linecap="round"><g transform="translate(835.1450000000004 135.55100000000039) rotate(0 -206.2835 28.32450000000017)"><path d="M0.61 -0.94 C-68.24 5.44, -344.33 28.01, -413.02 37.58 C-481.7 47.16, -411.76 53.17, -411.51 56.5 M-0.53 1.17 C-69.59 7.84, -345.67 29.76, -414.2 39.19 C-482.74 48.62, -411.69 55.02, -411.72 57.74" stroke="#1e1e1e" stroke-width="2" fill="none"></path></g><g transform="translate(835.1450000000004 135.55100000000039) rotate(0 -206.2835 28.32450000000017)"><path d="M-421.27 58.7 C-419.07 58, -415.25 58.91, -411.72 57.74 M-421.27 58.7 C-418.37 58.4, -415.74 57.92, -411.72 57.74" stroke="#1e1e1e" stroke-width="2" fill="none"></path></g><g transform="translate(835.1450000000004 135.55100000000039) rotate(0 -206.2835 28.32450000000017)"><path d="M-419.66 52.34 C-417.99 53.61, -414.67 56.49, -411.72 57.74 M-419.66 52.34 C-417.16 53.88, -414.99 55.23, -411.72 57.74" stroke="#1e1e1e" stroke-width="2" fill="none"></path></g></g><mask></mask><g stroke-linecap="round"><g transform="translate(850.5470000000005 148.5) rotate(0 -47.15650000000005 21.84999999999991)"><path d="M-0.45 0.14 C-16.1 4.35, -77.79 16.94, -93.26 24.35 C-108.72 31.77, -93.15 41.39, -93.26 44.63 M1.51 -0.84 C-14.25 3.65, -77.82 18.54, -93.65 25.81 C-109.48 33.08, -93.51 39.59, -93.47 42.78" stroke="#1e1e1e" stroke-width="2" fill="none"></path></g><g transform="translate(850.5470000000005 148.5) rotate(0 -47.15650000000005 21.84999999999991)"><path d="M-101.74 37.9 C-98.77 40.49, -96.09 42.2, -93.47 42.78 M-101.74 37.9 C-98.55 39.58, -95.46 41.78, -93.47 42.78" stroke="#1e1e1e" stroke-width="2" fill="none"></path></g><g transform="translate(850.5470000000005 148.5) rotate(0 -47.15650000000005 21.84999999999991)"><path d="M-96.67 33.73 C-95.51 37.76, -94.61 40.94, -93.47 42.78 M-96.67 33.73 C-95.38 36.99, -94.21 40.77, -93.47 42.78" stroke="#1e1e1e" stroke-width="2" fill="none"></path></g></g><mask></mask><g stroke-linecap="round"><g transform="translate(988.6440000000002 148.5) rotate(0 31.30699999999979 21.84999999999991)"><path d="M1.06 -0.15 C11.74 4.07, 53.34 18.11, 63.67 25.43 C74 32.76, 63.18 40.84, 63.03 43.82 M0.15 -1.27 C10.81 2.61, 52.89 16.06, 63.27 23.8 C73.66 31.55, 62.52 41.8, 62.48 45.2" stroke="#1e1e1e" stroke-width="2" fill="none"></path></g><g transform="translate(988.6440000000002 148.5) rotate(0 31.30699999999979 21.84999999999991)"><path d="M63.28 35.64 C62.96 39, 63.62 40.99, 62.48 45.2 M63.28 35.64 C63.05 38.8, 62.33 41.48, 62.48 45.2" stroke="#1e1e1e" stroke-width="2" fill="none"></path></g><g transform="translate(988.6440000000002 148.5) rotate(0 31.30699999999979 21.84999999999991)"><path d="M69.24 38.39 C67.36 41.08, 66.45 42.36, 62.48 45.2 M69.24 38.39 C67.16 40.68, 64.59 42.51, 62.48 45.2" stroke="#1e1e1e" stroke-width="2" fill="none"></path></g></g><mask></mask><g stroke-linecap="round"><g transform="translate(1031.9409999999998 139.0550000000003) rotate(0 134.98250000000007 26.57250000000022)"><path d="M1.05 0.93 C45.94 6.64, 225.54 25.43, 270.38 34.07 C315.22 42.7, 270.15 49.49, 270.08 52.76 M0.15 0.38 C44.82 6.31, 224.78 26.75, 269.65 35.67 C314.52 44.58, 269.28 51.26, 269.38 53.87" stroke="#1e1e1e" stroke-width="2" fill="none"></path></g><g transform="translate(1031.9409999999998 139.0550000000003) rotate(0 134.98250000000007 26.57250000000022)"><path d="M276.53 47.47 C274.5 50.35, 271.07 52.59, 269.38 53.87 M276.53 47.47 C274.16 49.13, 272.73 51.2, 269.38 53.87" stroke="#1e1e1e" stroke-width="2" fill="none"></path></g><g transform="translate(1031.9409999999998 139.0550000000003) rotate(0 134.98250000000007 26.57250000000022)"><path d="M278.97 53.57 C276 54.1, 271.62 53.98, 269.38 53.87 M278.97 53.57 C275.94 53.61, 273.86 54.05, 269.38 53.87" stroke="#1e1e1e" stroke-width="2" fill="none"></path></g></g><mask></mask><g stroke-linecap="round"><g transform="translate(1031.9409999999998 134.45600000000013) rotate(0 241.45550000000003 28.871999999999844)"><path d="M0.41 0.12 C80.74 6.32, 402.61 28.47, 483.03 38.16 C563.45 47.84, 483.15 55.01, 482.94 58.24 M-0.83 -0.86 C79.26 5.43, 401.64 29.99, 482.14 39.49 C562.64 48.99, 482.31 52.98, 482.18 56.16" stroke="#1e1e1e" stroke-width="2" fill="none"></path></g><g transform="translate(1031.9409999999998 134.45600000000013) rotate(0 241.45550000000003 28.871999999999844)"><path d="M490.34 51.09 C487.31 53.18, 483.74 55.07, 482.18 56.16 M490.34 51.09 C487.53 53.09, 484.7 54.54, 482.18 56.16" stroke="#1e1e1e" stroke-width="2" fill="none"></path></g><g transform="translate(1031.9409999999998 134.45600000000013) rotate(0 241.45550000000003 28.871999999999844)"><path d="M491.69 57.52 C488.09 57.12, 483.99 56.52, 482.18 56.16 M491.69 57.52 C488.48 57.32, 485.19 56.57, 482.18 56.16" stroke="#1e1e1e" stroke-width="2" fill="none"></path></g></g><mask></mask><g stroke-linecap="round"><g transform="translate(1031.9409999999998 132.10400000000027) rotate(0 363.43949999999995 30.047999999999774)"><path d="M0.12 -0.39 C121.2 6.49, 605.97 31.35, 726.9 41.39 C847.84 51.44, 725.71 56.66, 725.72 59.89 M-1.28 -1.64 C119.61 4.87, 604.42 29.07, 725.97 39.53 C847.52 49.99, 727.8 57.92, 728 61.1" stroke="#1e1e1e" stroke-width="2" fill="none"></path></g><g transform="translate(1031.9409999999998 132.10400000000027) rotate(0 363.43949999999995 30.047999999999774)"><path d="M736.29 56.26 C733.21 57.91, 731.15 58.58, 728 61.1 M736.29 56.26 C733.93 57.67, 731.88 59.34, 728 61.1" stroke="#1e1e1e" stroke-width="2" fill="none"></path></g><g transform="translate(1031.9409999999998 132.10400000000027) rotate(0 363.43949999999995 30.047999999999774)"><path d="M737.47 62.72 C733.99 62.21, 731.53 60.72, 728 61.1 M737.47 62.72 C734.77 62.31, 732.39 62.15, 728 61.1" stroke="#1e1e1e" stroke-width="2" fill="none"></path></g></g><mask></mask><g stroke-linecap="round"><g transform="translate(2060.9220000000005 148.5) rotate(0 0 21.84999999999991)"><path d="M0.01 0.23 C-0.09 7.52, -0.53 36.31, -0.53 43.61 M-0.65 -0.13 C-0.59 7.27, 0.37 37.05, 0.43 44.26" stroke="#1e1e1e" stroke-width="2" fill="none"></path></g><g transform="translate(2060.9220000000005 148.5) rotate(0 0 21.84999999999991)"><path d="M-7.49 23.89 C-4.65 29.23, -2.79 36.56, 0.43 44.26 M-7.49 23.89 C-4.37 31.49, -1.5 38.32, 0.43 44.26" stroke="#1e1e1e" stroke-width="2" fill="none"></path></g><g transform="translate(2060.9220000000005 148.5) rotate(0 0 21.84999999999991)"><path d="M7.46 23.57 C5.66 29.01, 2.9 36.43, 0.43 44.26 M7.46 23.57 C5.22 31.28, 2.74 38.23, 0.43 44.26" stroke="#1e1e1e" stroke-width="2" fill="none"></path></g></g><mask></mask><g stroke-linecap="round"><g transform="translate(1937.3590000000004 228.03300000000036) rotate(0 -323.68550000000005 29.083500000000186)"><path d="M-1.16 -0.2 C-109.05 6.32, -539.6 29.94, -647.31 39.67 C-755.02 49.39, -647.53 54.96, -647.42 58.16 M0.43 -1.36 C-107.61 4.78, -540.12 27.77, -648.23 37.91 C-756.34 48.05, -648.58 56.34, -648.22 59.48" stroke="#1e1e1e" stroke-width="2" fill="none"></path></g><g transform="translate(1937.3590000000004 228.03300000000036) rotate(0 -323.68550000000005 29.083500000000186)"><path d="M-657.71 60.93 C-655.01 60.63, -651.42 60.1, -648.22 59.48 M-657.71 60.93 C-654.56 60.28, -651.66 59.87, -648.22 59.48" stroke="#1e1e1e" stroke-width="2" fill="none"></path></g><g transform="translate(1937.3590000000004 228.03300000000036) rotate(0 -323.68550000000005 29.083500000000186)"><path d="M-656.42 54.49 C-654.08 56.12, -650.88 57.54, -648.22 59.48 M-656.42 54.49 C-653.62 55.78, -651.1 57.3, -648.22 59.48" stroke="#1e1e1e" stroke-width="2" fill="none"></path></g></g><mask></mask><g stroke-linecap="round"><g transform="translate(1937.3590000000004 231.39599999999973) rotate(0 -204.70899999999983 27.402000000000044)"><path d="M0.06 0.7 C-67.99 6.67, -341.34 26.46, -409.47 35.6 C-477.6 44.74, -408.86 52.4, -408.72 55.53 M-1.37 0.02 C-69.48 6.21, -342.49 28.21, -410.45 37.14 C-478.41 46.06, -409.54 50.54, -409.13 53.57" stroke="#1e1e1e" stroke-width="2" fill="none"></path></g><g transform="translate(1937.3590000000004 231.39599999999973) rotate(0 -204.70899999999983 27.402000000000044)"><path d="M-418.66 54.66 C-416.17 54.39, -414.79 54.76, -409.13 53.57 M-418.66 54.66 C-414.86 54.16, -412.07 53.94, -409.13 53.57" stroke="#1e1e1e" stroke-width="2" fill="none"></path></g><g transform="translate(1937.3590000000004 231.39599999999973) rotate(0 -204.70899999999983 27.402000000000044)"><path d="M-417.13 48.27 C-414.95 49.3, -413.89 50.98, -409.13 53.57 M-417.13 48.27 C-413.84 50.07, -411.6 52.16, -409.13 53.57" stroke="#1e1e1e" stroke-width="2" fill="none"></path></g></g><mask></mask><g stroke-linecap="round"><g transform="translate(2052.1090000000004 242.5) rotate(0 -5.007499999999709 21.84999999999991)"><path d="M-0.02 0 C-1.65 4.08, -8.09 17.58, -9.7 24.83 C-11.3 32.09, -9.68 40.4, -9.66 43.52 M-0.7 -0.48 C-2.37 3.42, -8.44 16.62, -9.97 24.04 C-11.49 31.46, -9.94 40.7, -9.82 44.03" stroke="#1e1e1e" stroke-width="2" fill="none"></path></g><g transform="translate(2052.1090000000004 242.5) rotate(0 -5.007499999999709 21.84999999999991)"><path d="M-13.85 35.31 C-12.6 38.25, -11.08 40.94, -9.82 44.03 M-13.85 35.31 C-12.88 37.67, -11.71 39.83, -9.82 44.03" stroke="#1e1e1e" stroke-width="2" fill="none"></path></g><g transform="translate(2052.1090000000004 242.5) rotate(0 -5.007499999999709 21.84999999999991)"><path d="M-7.31 34.76 C-8.05 37.86, -8.52 40.72, -9.82 44.03 M-7.31 34.76 C-8.09 37.25, -8.66 39.56, -9.82 44.03" stroke="#1e1e1e" stroke-width="2" fill="none"></path></g></g><mask></mask><g stroke-linecap="round"><g transform="translate(2162.3099999999995 242.5) rotate(0 57.60649999999987 21.84999999999991)"><path d="M0.69 0.73 C20.03 4.75, 96.75 17, 115.99 24.11 C135.23 31.21, 116.39 40.08, 116.15 43.37 M-0.4 0.06 C18.85 4.25, 96.07 18.03, 115.45 25.44 C134.83 32.84, 116.05 41.25, 115.87 44.51" stroke="#1e1e1e" stroke-width="2" fill="none"></path></g><g transform="translate(2162.3099999999995 242.5) rotate(0 57.60649999999987 21.84999999999991)"><path d="M119.36 35.56 C118.91 38.85, 116.98 41.62, 115.87 44.51 M119.36 35.56 C118.27 37.71, 117.44 40.04, 115.87 44.51" stroke="#1e1e1e" stroke-width="2" fill="none"></path></g><g transform="translate(2162.3099999999995 242.5) rotate(0 57.60649999999987 21.84999999999991)"><path d="M124.29 39.9 C122.38 41.93, 119 43.42, 115.87 44.51 M124.29 39.9 C121.89 40.87, 119.71 42.02, 115.87 44.51" stroke="#1e1e1e" stroke-width="2" fill="none"></path></g></g><mask></mask><g stroke-linecap="round"><g transform="translate(422.5779999999995 242.5) rotate(0 0 21.84999999999991)"><path d="M0.36 -0.18 C0.38 7.02, 0.54 36.23, 0.43 43.55 M-0.12 -0.75 C-0.17 6.5, 0.06 36.65, 0.22 44.17" stroke="#1e1e1e" stroke-width="2" fill="none"></path></g><g transform="translate(422.5779999999995 242.5) rotate(0 0 21.84999999999991)"><path d="M-7.52 23.73 C-5.02 31.8, -2.2 37.74, 0.22 44.17 M-7.52 23.73 C-5.12 29.64, -2.81 36.5, 0.22 44.17" stroke="#1e1e1e" stroke-width="2" fill="none"></path></g><g transform="translate(422.5779999999995 242.5) rotate(0 0 21.84999999999991)"><path d="M7.42 23.54 C4.58 31.72, 2.05 37.74, 0.22 44.17 M7.42 23.54 C5.22 29.46, 2.93 36.38, 0.22 44.17" stroke="#1e1e1e" stroke-width="2" fill="none"></path></g></g><mask></mask></svg>